<?xml version="1.0" encoding="UTF-8" standalone="no"?>
<!DOCTYPE svg PUBLIC "-//W3C//DTD SVG 1.1//EN"
 "http://www.w3.org/Graphics/SVG/1.1/DTD/svg11.dtd">
<!-- Generated by graphviz version 2.46.1 (20210213.1702)
 -->
<!-- Title: G Pages: 1 -->
<svg width="630pt" height="484pt"
 viewBox="0.00 0.00 630.20 484.19" xmlns="http://www.w3.org/2000/svg" xmlns:xlink="http://www.w3.org/1999/xlink">
<g id="graph0" class="graph" transform="scale(1 1) rotate(0) translate(21.6 462.59)">
<title>G</title>
<polygon fill="#111111" stroke="transparent" points="-21.6,21.6 -21.6,-462.59 608.6,-462.59 608.6,21.6 -21.6,21.6"/>
<!-- ../scss/app.scss -->
<g id="node1" class="node">
<title>../scss/app.scss</title>
<path fill="none" stroke="#c6c5fe" d="M237.83,-440.99C237.83,-440.99 141.17,-440.99 141.17,-440.99 137.33,-440.99 133.5,-437.15 133.5,-433.32 133.5,-433.32 133.5,-425.65 133.5,-425.65 133.5,-421.82 137.33,-417.99 141.17,-417.99 141.17,-417.99 237.83,-417.99 237.83,-417.99 241.67,-417.99 245.5,-421.82 245.5,-425.65 245.5,-425.65 245.5,-433.32 245.5,-433.32 245.5,-437.15 241.67,-440.99 237.83,-440.99"/>
<text text-anchor="middle" x="189.5" y="-425.79" font-family="Arial" font-size="14.00" fill="#c6c5fe">../scss/app.scss</text>
</g>
<!-- ../scss/scrollingnotes.scss -->
<g id="node2" class="node">
<title>../scss/scrollingnotes.scss</title>
<path fill="none" stroke="#cfffac" d="M489.33,-440.99C489.33,-440.99 332.67,-440.99 332.67,-440.99 328.83,-440.99 325,-437.15 325,-433.32 325,-433.32 325,-425.65 325,-425.65 325,-421.82 328.83,-417.99 332.67,-417.99 332.67,-417.99 489.33,-417.99 489.33,-417.99 493.17,-417.99 497,-421.82 497,-425.65 497,-425.65 497,-433.32 497,-433.32 497,-437.15 493.17,-440.99 489.33,-440.99"/>
<text text-anchor="middle" x="411" y="-425.79" font-family="Arial" font-size="14.00" fill="#cfffac">../scss/scrollingnotes.scss</text>
</g>
<!-- ../scss/app.scss&#45;&gt;../scss/scrollingnotes.scss -->
<g id="edge1" class="edge">
<title>../scss/app.scss&#45;&gt;../scss/scrollingnotes.scss</title>
<path fill="none" stroke="#757575" d="M245.61,-429.49C266.61,-429.49 291.19,-429.49 314.86,-429.49"/>
<polygon fill="#757575" stroke="#757575" points="314.93,-432.99 324.93,-429.49 314.93,-425.99 314.93,-432.99"/>
</g>
<!-- ../scss/audio.css -->
<g id="node3" class="node">
<title>../scss/audio.css</title>
<path fill="none" stroke="#cfffac" d="M239.83,-399.99C239.83,-399.99 139.17,-399.99 139.17,-399.99 135.33,-399.99 131.5,-396.15 131.5,-392.32 131.5,-392.32 131.5,-384.65 131.5,-384.65 131.5,-380.82 135.33,-376.99 139.17,-376.99 139.17,-376.99 239.83,-376.99 239.83,-376.99 243.67,-376.99 247.5,-380.82 247.5,-384.65 247.5,-384.65 247.5,-392.32 247.5,-392.32 247.5,-396.15 243.67,-399.99 239.83,-399.99"/>
<text text-anchor="middle" x="189.5" y="-384.79" font-family="Arial" font-size="14.00" fill="#cfffac">../scss/audio.css</text>
</g>
<!-- ../scss/vanilla&#45;js&#45;dropdown.css -->
<g id="node4" class="node">
<title>../scss/vanilla&#45;js&#45;dropdown.css</title>
<path fill="none" stroke="#cfffac" d="M281.33,-358.99C281.33,-358.99 97.67,-358.99 97.67,-358.99 93.83,-358.99 90,-355.15 90,-351.32 90,-351.32 90,-343.65 90,-343.65 90,-339.82 93.83,-335.99 97.67,-335.99 97.67,-335.99 281.33,-335.99 281.33,-335.99 285.17,-335.99 289,-339.82 289,-343.65 289,-343.65 289,-351.32 289,-351.32 289,-355.15 285.17,-358.99 281.33,-358.99"/>
<text text-anchor="middle" x="189.5" y="-343.79" font-family="Arial" font-size="14.00" fill="#cfffac">../scss/vanilla&#45;js&#45;dropdown.css</text>
</g>
<!-- app.js -->
<g id="node5" class="node">
<title>app.js</title>
<path fill="none" stroke="#c6c5fe" d="M46.33,-238.99C46.33,-238.99 7.67,-238.99 7.67,-238.99 3.83,-238.99 0,-235.15 0,-231.32 0,-231.32 0,-223.65 0,-223.65 0,-219.82 3.83,-215.99 7.67,-215.99 7.67,-215.99 46.33,-215.99 46.33,-215.99 50.17,-215.99 54,-219.82 54,-223.65 54,-223.65 54,-231.32 54,-231.32 54,-235.15 50.17,-238.99 46.33,-238.99"/>
<text text-anchor="middle" x="27" y="-223.79" font-family="Arial" font-size="14.00" fill="#c6c5fe">app.js</text>
</g>
<!-- app.js&#45;&gt;../scss/app.scss -->
<g id="edge2" class="edge">
<title>app.js&#45;&gt;../scss/app.scss</title>
<path fill="none" stroke="#757575" d="M28.22,-239.45C29.52,-272.14 37.87,-363.63 90,-409.49 99.41,-417.76 111.29,-422.97 123.51,-426.18"/>
<polygon fill="#757575" stroke="#757575" points="122.83,-429.61 133.35,-428.34 124.34,-422.77 122.83,-429.61"/>
</g>
<!-- app.js&#45;&gt;../scss/audio.css -->
<g id="edge3" class="edge">
<title>app.js&#45;&gt;../scss/audio.css</title>
<path fill="none" stroke="#757575" d="M29.5,-239.14C33.66,-266.4 47.94,-334.59 90,-368.49 99.04,-375.77 110.03,-380.62 121.35,-383.81"/>
<polygon fill="#757575" stroke="#757575" points="120.8,-387.28 131.34,-386.2 122.43,-380.47 120.8,-387.28"/>
</g>
<!-- app.js&#45;&gt;../scss/vanilla&#45;js&#45;dropdown.css -->
<g id="edge4" class="edge">
<title>app.js&#45;&gt;../scss/vanilla&#45;js&#45;dropdown.css</title>
<path fill="none" stroke="#757575" d="M32.35,-239C40.5,-258.97 59.99,-299.93 90,-321.49 95.88,-325.71 102.39,-329.24 109.19,-332.21"/>
<polygon fill="#757575" stroke="#757575" points="108.01,-335.5 118.6,-335.9 110.57,-328.99 108.01,-335.5"/>
</g>
<!-- hps.js -->
<g id="node6" class="node">
<title>hps.js</title>
<path fill="none" stroke="#c6c5fe" d="M430.33,-318.99C430.33,-318.99 391.67,-318.99 391.67,-318.99 387.83,-318.99 384,-315.15 384,-311.32 384,-311.32 384,-303.65 384,-303.65 384,-299.82 387.83,-295.99 391.67,-295.99 391.67,-295.99 430.33,-295.99 430.33,-295.99 434.17,-295.99 438,-299.82 438,-303.65 438,-303.65 438,-311.32 438,-311.32 438,-315.15 434.17,-318.99 430.33,-318.99"/>
<text text-anchor="middle" x="411" y="-303.79" font-family="Arial" font-size="14.00" fill="#c6c5fe">hps.js</text>
</g>
<!-- app.js&#45;&gt;hps.js -->
<g id="edge5" class="edge">
<title>app.js&#45;&gt;hps.js</title>
<path fill="none" stroke="#757575" d="M35.8,-239.22C46.21,-253.75 66.13,-277.88 90,-288.49 185.19,-330.8 312.24,-321.4 373.69,-313.28"/>
<polygon fill="#757575" stroke="#757575" points="374.25,-316.74 383.67,-311.9 373.29,-309.8 374.25,-316.74"/>
</g>
<!-- instrument.js -->
<g id="node7" class="node">
<title>instrument.js</title>
<path fill="none" stroke="#c6c5fe" d="M450.33,-238.99C450.33,-238.99 371.67,-238.99 371.67,-238.99 367.83,-238.99 364,-235.15 364,-231.32 364,-231.32 364,-223.65 364,-223.65 364,-219.82 367.83,-215.99 371.67,-215.99 371.67,-215.99 450.33,-215.99 450.33,-215.99 454.17,-215.99 458,-219.82 458,-223.65 458,-223.65 458,-231.32 458,-231.32 458,-235.15 454.17,-238.99 450.33,-238.99"/>
<text text-anchor="middle" x="411" y="-223.79" font-family="Arial" font-size="14.00" fill="#c6c5fe">instrument.js</text>
</g>
<!-- app.js&#45;&gt;instrument.js -->
<g id="edge6" class="edge">
<title>app.js&#45;&gt;instrument.js</title>
<path fill="none" stroke="#757575" d="M54.26,-227.49C115.67,-227.49 269.79,-227.49 353.6,-227.49"/>
<polygon fill="#757575" stroke="#757575" points="353.71,-230.99 363.71,-227.49 353.71,-223.99 353.71,-230.99"/>
</g>
<!-- player.js -->
<g id="node8" class="node">
<title>player.js</title>
<path fill="none" stroke="#c6c5fe" d="M214.83,-278.99C214.83,-278.99 164.17,-278.99 164.17,-278.99 160.33,-278.99 156.5,-275.15 156.5,-271.32 156.5,-271.32 156.5,-263.65 156.5,-263.65 156.5,-259.82 160.33,-255.99 164.17,-255.99 164.17,-255.99 214.83,-255.99 214.83,-255.99 218.67,-255.99 222.5,-259.82 222.5,-263.65 222.5,-263.65 222.5,-271.32 222.5,-271.32 222.5,-275.15 218.67,-278.99 214.83,-278.99"/>
<text text-anchor="middle" x="189.5" y="-263.79" font-family="Arial" font-size="14.00" fill="#c6c5fe">player.js</text>
</g>
<!-- app.js&#45;&gt;player.js -->
<g id="edge7" class="edge">
<title>app.js&#45;&gt;player.js</title>
<path fill="none" stroke="#757575" d="M54.14,-234C79.09,-240.22 117.11,-249.69 146.34,-256.98"/>
<polygon fill="#757575" stroke="#757575" points="145.73,-260.43 156.28,-259.46 147.42,-253.64 145.73,-260.43"/>
</g>
<!-- song.js -->
<g id="node9" class="node">
<title>song.js</title>
<path fill="none" stroke="#c6c5fe" d="M211.33,-198.99C211.33,-198.99 167.67,-198.99 167.67,-198.99 163.83,-198.99 160,-195.15 160,-191.32 160,-191.32 160,-183.65 160,-183.65 160,-179.82 163.83,-175.99 167.67,-175.99 167.67,-175.99 211.33,-175.99 211.33,-175.99 215.17,-175.99 219,-179.82 219,-183.65 219,-183.65 219,-191.32 219,-191.32 219,-195.15 215.17,-198.99 211.33,-198.99"/>
<text text-anchor="middle" x="189.5" y="-183.79" font-family="Arial" font-size="14.00" fill="#c6c5fe">song.js</text>
</g>
<!-- app.js&#45;&gt;song.js -->
<g id="edge8" class="edge">
<title>app.js&#45;&gt;song.js</title>
<path fill="none" stroke="#757575" d="M54.14,-220.97C80.13,-214.5 120.27,-204.49 149.92,-197.1"/>
<polygon fill="#757575" stroke="#757575" points="151.07,-200.42 159.93,-194.61 149.38,-193.63 151.07,-200.42"/>
</g>
<!-- songs.js -->
<g id="node10" class="node">
<title>songs.js</title>
<path fill="none" stroke="#c6c5fe" d="M214.83,-157.99C214.83,-157.99 164.17,-157.99 164.17,-157.99 160.33,-157.99 156.5,-154.15 156.5,-150.32 156.5,-150.32 156.5,-142.65 156.5,-142.65 156.5,-138.82 160.33,-134.99 164.17,-134.99 164.17,-134.99 214.83,-134.99 214.83,-134.99 218.67,-134.99 222.5,-138.82 222.5,-142.65 222.5,-142.65 222.5,-150.32 222.5,-150.32 222.5,-154.15 218.67,-157.99 214.83,-157.99"/>
<text text-anchor="middle" x="189.5" y="-142.79" font-family="Arial" font-size="14.00" fill="#c6c5fe">songs.js</text>
</g>
<!-- app.js&#45;&gt;songs.js -->
<g id="edge9" class="edge">
<title>app.js&#45;&gt;songs.js</title>
<path fill="none" stroke="#757575" d="M36.68,-215.78C47.56,-201.99 67.53,-179.46 90,-167.49 107.24,-158.3 128.18,-153.14 146.32,-150.23"/>
<polygon fill="#757575" stroke="#757575" points="146.94,-153.68 156.35,-148.8 145.95,-146.75 146.94,-153.68"/>
</g>
<!-- state.js -->
<g id="node11" class="node">
<title>state.js</title>
<path fill="none" stroke="#c6c5fe" d="M432.83,-120.99C432.83,-120.99 389.17,-120.99 389.17,-120.99 385.33,-120.99 381.5,-117.15 381.5,-113.32 381.5,-113.32 381.5,-105.65 381.5,-105.65 381.5,-101.82 385.33,-97.99 389.17,-97.99 389.17,-97.99 432.83,-97.99 432.83,-97.99 436.67,-97.99 440.5,-101.82 440.5,-105.65 440.5,-105.65 440.5,-113.32 440.5,-113.32 440.5,-117.15 436.67,-120.99 432.83,-120.99"/>
<text text-anchor="middle" x="411" y="-105.79" font-family="Arial" font-size="14.00" fill="#c6c5fe">state.js</text>
</g>
<!-- app.js&#45;&gt;state.js -->
<g id="edge10" class="edge">
<title>app.js&#45;&gt;state.js</title>
<path fill="none" stroke="#757575" d="M31.22,-215.84C37.96,-193.89 55.87,-146.79 90,-126.49 179,-73.54 307.75,-88.6 371.4,-100.77"/>
<polygon fill="#757575" stroke="#757575" points="370.91,-104.24 381.4,-102.76 372.28,-97.37 370.91,-104.24"/>
</g>
<!-- storage.js -->
<g id="node12" class="node">
<title>storage.js</title>
<path fill="none" stroke="#c6c5fe" d="M440.83,-79.99C440.83,-79.99 381.17,-79.99 381.17,-79.99 377.33,-79.99 373.5,-76.15 373.5,-72.32 373.5,-72.32 373.5,-64.65 373.5,-64.65 373.5,-60.82 377.33,-56.99 381.17,-56.99 381.17,-56.99 440.83,-56.99 440.83,-56.99 444.67,-56.99 448.5,-60.82 448.5,-64.65 448.5,-64.65 448.5,-72.32 448.5,-72.32 448.5,-76.15 444.67,-79.99 440.83,-79.99"/>
<text text-anchor="middle" x="411" y="-64.79" font-family="Arial" font-size="14.00" fill="#c6c5fe">storage.js</text>
</g>
<!-- app.js&#45;&gt;storage.js -->
<g id="edge11" class="edge">
<title>app.js&#45;&gt;storage.js</title>
<path fill="none" stroke="#757575" d="M29.07,-215.66C32.32,-187.36 44.85,-115.77 90,-84.49 172.2,-27.54 296.76,-42.69 363.64,-56.75"/>
<polygon fill="#757575" stroke="#757575" points="362.96,-60.18 373.48,-58.9 364.45,-53.35 362.96,-60.18"/>
</g>
<!-- vanilla&#45;js&#45;dropdown.js -->
<g id="node13" class="node">
<title>vanilla&#45;js&#45;dropdown.js</title>
<path fill="none" stroke="#c6c5fe" d="M476.33,-38.99C476.33,-38.99 345.67,-38.99 345.67,-38.99 341.83,-38.99 338,-35.15 338,-31.32 338,-31.32 338,-23.65 338,-23.65 338,-19.82 341.83,-15.99 345.67,-15.99 345.67,-15.99 476.33,-15.99 476.33,-15.99 480.17,-15.99 484,-19.82 484,-23.65 484,-23.65 484,-31.32 484,-31.32 484,-35.15 480.17,-38.99 476.33,-38.99"/>
<text text-anchor="middle" x="411" y="-23.79" font-family="Arial" font-size="14.00" fill="#c6c5fe">vanilla&#45;js&#45;dropdown.js</text>
</g>
<!-- app.js&#45;&gt;vanilla&#45;js&#45;dropdown.js -->
<g id="edge12" class="edge">
<title>app.js&#45;&gt;vanilla&#45;js&#45;dropdown.js</title>
<path fill="none" stroke="#757575" d="M27.82,-215.94C27.99,-182.66 33.55,-86.21 90,-43.49 167.73,15.34 289,1.12 357.78,-13.7"/>
<polygon fill="#757575" stroke="#757575" points="357.41,-17.21 367.94,-15.98 358.95,-10.38 357.41,-17.21"/>
</g>
<!-- utils.js -->
<g id="node14" class="node">
<title>utils.js</title>
<path fill="none" stroke="#cfffac" d="M579.33,-179.99C579.33,-179.99 540.67,-179.99 540.67,-179.99 536.83,-179.99 533,-176.15 533,-172.32 533,-172.32 533,-164.65 533,-164.65 533,-160.82 536.83,-156.99 540.67,-156.99 540.67,-156.99 579.33,-156.99 579.33,-156.99 583.17,-156.99 587,-160.82 587,-164.65 587,-164.65 587,-172.32 587,-172.32 587,-176.15 583.17,-179.99 579.33,-179.99"/>
<text text-anchor="middle" x="560" y="-164.79" font-family="Arial" font-size="14.00" fill="#cfffac">utils.js</text>
</g>
<!-- hps.js&#45;&gt;utils.js -->
<g id="edge13" class="edge">
<title>hps.js&#45;&gt;utils.js</title>
<path fill="none" stroke="#757575" d="M438.22,-304.71C456.39,-301.62 480.24,-295.12 497,-281.49 526.47,-257.52 544.12,-215.65 552.66,-190.16"/>
<polygon fill="#757575" stroke="#757575" points="556.09,-190.93 555.78,-180.34 549.42,-188.81 556.09,-190.93"/>
</g>
<!-- instrument.js&#45;&gt;utils.js -->
<g id="edge14" class="edge">
<title>instrument.js&#45;&gt;utils.js</title>
<path fill="none" stroke="#757575" d="M455.37,-215.97C468.9,-211.92 483.74,-206.98 497,-201.49 508.3,-196.8 520.26,-190.72 530.63,-185.06"/>
<polygon fill="#757575" stroke="#757575" points="532.62,-187.96 539.64,-180.03 529.21,-181.85 532.62,-187.96"/>
</g>
<!-- player.js&#45;&gt;utils.js -->
<g id="edge15" class="edge">
<title>player.js&#45;&gt;utils.js</title>
<path fill="none" stroke="#757575" d="M222.8,-273.72C281.34,-283.32 407.23,-295.99 497,-248.49 521.47,-235.54 539.3,-208.23 549.4,-189.14"/>
<polygon fill="#757575" stroke="#757575" points="552.62,-190.53 553.97,-180.03 546.36,-187.4 552.62,-190.53"/>
</g>
<!-- song.js&#45;&gt;instrument.js -->
<g id="edge16" class="edge">
<title>song.js&#45;&gt;instrument.js</title>
<path fill="none" stroke="#757575" d="M219.2,-192.72C253.19,-198.91 310.63,-209.38 353.63,-217.21"/>
<polygon fill="#757575" stroke="#757575" points="353.2,-220.69 363.67,-219.04 354.46,-213.81 353.2,-220.69"/>
</g>
<!-- song.js&#45;&gt;utils.js -->
<g id="edge17" class="edge">
<title>song.js&#45;&gt;utils.js</title>
<path fill="none" stroke="#757575" d="M219.11,-186.01C285.35,-182.6 449.2,-174.15 522.51,-170.37"/>
<polygon fill="#757575" stroke="#757575" points="522.85,-173.86 532.65,-169.85 522.49,-166.87 522.85,-173.86"/>
</g>
<!-- songs.js&#45;&gt;utils.js -->
<g id="edge18" class="edge">
<title>songs.js&#45;&gt;utils.js</title>
<path fill="none" stroke="#757575" d="M222.56,-148.4C290.84,-152.48 450.3,-162 522.42,-166.3"/>
<polygon fill="#757575" stroke="#757575" points="522.62,-169.82 532.81,-166.92 523.04,-162.83 522.62,-169.82"/>
</g>
<!-- state.js&#45;&gt;utils.js -->
<g id="edge19" class="edge">
<title>state.js&#45;&gt;utils.js</title>
<path fill="none" stroke="#757575" d="M440.81,-116.81C457.5,-121.42 478.75,-127.92 497,-135.49 508.3,-140.17 520.26,-146.25 530.63,-151.91"/>
<polygon fill="#757575" stroke="#757575" points="529.21,-155.12 539.64,-156.94 532.62,-149.01 529.21,-155.12"/>
</g>
<!-- storage.js&#45;&gt;utils.js -->
<g id="edge20" class="edge">
<title>storage.js&#45;&gt;utils.js</title>
<path fill="none" stroke="#757575" d="M448.86,-72.17C464.65,-75.07 482.7,-80.25 497,-89.49 519.49,-104.02 537.3,-129.54 547.96,-147.64"/>
<polygon fill="#757575" stroke="#757575" points="545.18,-149.82 553.13,-156.82 551.27,-146.39 545.18,-149.82"/>
</g>
<!-- vanilla&#45;js&#45;dropdown.js&#45;&gt;utils.js -->
<g id="edge21" class="edge">
<title>vanilla&#45;js&#45;dropdown.js&#45;&gt;utils.js</title>
<path fill="none" stroke="#757575" d="M483.33,-39.16C488.2,-41.47 492.82,-44.22 497,-47.49 529.32,-72.79 546.34,-119.56 553.93,-146.95"/>
<polygon fill="#757575" stroke="#757575" points="550.57,-147.94 556.47,-156.74 557.35,-146.18 550.57,-147.94"/>
</g>
</g>
</svg>
