<svg version="1.1" id="Layer_1" xmlns="http://www.w3.org/2000/svg" xmlns:xlink="http://www.w3.org/1999/xlink" x="0px" y="0px"
	 viewBox="0 0 411.6 411.6" style="enable-background:new 0 0 411.6 411.6;" xml:space="preserve">
<g>
	<g>
		<g>
			<path d="M328,268.05c-4.4,0-8,3.6-8,8v72c0,13.2-10.8,24-24,24H40c-13.2,0-24-10.8-24-24v-224c0-13.2,10.8-24,24-24h176
				c4.4,0,8-3.6,8-8s-3.6-8-8-8H40c-22,0-40,18-40,40v224c0,22,18,40,40,40h256c22,0,40-18,40-40v-72
				C336,271.65,332.4,268.05,328,268.05z"/>
			<path d="M328,220.45c-4.4,0-8,3.6-8,8v11.6c0,4.4,3.6,8,8,8c4.4,0,8-3.6,8-8v-11.6C336,224.05,332.4,220.45,328,220.45z"/>
			<path d="M400,58.05l-22.8-22.8c-15.6-15.6-40.8-15.6-56.4,0l-156,156c-3.2,3.2-4.8,7.2-4.8,11.2v62l-5.6,5.6
				c-3.2,3.2-3.2,8,0,11.2c1.6,2,3.6,2.8,5.6,2.8s4-0.8,5.6-2.4l5.6-5.6l0.4-0.4h61.2c4.4,0,8.4-1.6,11.2-4.8l137.6-137.6
				c0.4-0.4,1.2-0.8,1.6-1.2c0.4-0.4,0.8-1.2,1.2-1.6l15.6-15.6c7.6-7.6,11.6-17.6,11.6-28.4C411.6,75.65,407.6,65.65,400,58.05z
				 M228,259.65h-52v-51.6h16v24c0,6.8,5.2,12,12,12h24V259.65z M244,248.45v-8.4c0-6.8-5.2-12-12-12h-24v-24c0-6.8-5.2-12-12-12
				h-9.2l122.4-122.4l56.8,56.8L244,248.45z M388.8,103.65l-11.2,11.2l-56.8-56.8l11.2-11.2c9.2-9.2,24.4-9.2,34,0l22.8,22.8
				c4.4,4.4,6.8,10.4,6.8,16.8C395.6,92.85,393.2,99.25,388.8,103.65z"/>
		</g>
	</g>
</g>
<g>
</g>
<g>
</g>
<g>
</g>
<g>
</g>
<g>
</g>
<g>
</g>
<g>
</g>
<g>
</g>
<g>
</g>
<g>
</g>
<g>
</g>
<g>
</g>
<g>
</g>
<g>
</g>
<g>
</g>
</svg>
