<?xml version="1.0" encoding="iso-8859-1"?>
<!-- Generator: Adobe Illustrator 18.0.0, SVG Export Plug-In . SVG Version: 6.00 Build 0)  -->
<!DOCTYPE svg PUBLIC "-//W3C//DTD SVG 1.1//EN" "http://www.w3.org/Graphics/SVG/1.1/DTD/svg11.dtd">
<svg version="1.1" id="Capa_1" xmlns="http://www.w3.org/2000/svg" xmlns:xlink="http://www.w3.org/1999/xlink" x="0px" y="0px"
	 viewBox="0 0 463.708 463.708" style="enable-background:new 0 0 463.708 463.708;" xml:space="preserve">
<path id="XMLID_1647_" d="M290.327,443.858c-0.193-0.035-19.512-3.564-38.318-14.737c-23.747-14.108-35.788-33.55-35.788-57.785
	c0-53.391,74.03-72.479,74.767-72.662c7.535-1.861,10.181-11.272,4.675-16.78c-6.581-6.581-65.931-65.932-75.299-75.3l75.299-75.299
	c3.896-3.896,3.906-10.21,0.023-14.119L182.211,2.953c-3.893-3.92-10.224-3.939-14.142-0.047s-3.939,10.225-0.046,14.143
	l75.448,75.946l-75.425,75.425c-3.903,3.905-3.904,10.237,0,14.143c51.715,51.714,31.56,31.56,70.876,70.875
	c-7.922,3.054-17.889,7.547-27.902,13.778c-30.03,18.685-45.903,43.933-45.903,73.017c0,39.092,33.779,67.966,54.151,88.475
	c28.151,25.617,62.333,35.001,69.334,35.001c4.762,0,8.974-3.416,9.829-8.268C299.388,450.008,295.757,444.824,290.327,443.858z
	 M257.567,107.184l16.905,17.016l-68.251,68.252l-16.961-16.961L257.567,107.184z M185.117,340.232
	c0-45.109,52.479-65.639,69.493-71.106l15.438,15.438c-7.925,3.069-17.907,7.584-27.932,13.834
	c-28.029,17.473-46.866,42.604-45.85,75.749C189.722,364.045,185.117,352.742,185.117,340.232z"/>
<g>
</g>
<g>
</g>
<g>
</g>
<g>
</g>
<g>
</g>
<g>
</g>
<g>
</g>
<g>
</g>
<g>
</g>
<g>
</g>
<g>
</g>
<g>
</g>
<g>
</g>
<g>
</g>
<g>
</g>
</svg>
