<?xml version="1.0" encoding="iso-8859-1"?>
<!-- Generator: Adobe Illustrator 19.0.0, SVG Export Plug-In . SVG Version: 6.00 Build 0)  -->
<svg version="1.1" id="Layer_1" xmlns="http://www.w3.org/2000/svg" xmlns:xlink="http://www.w3.org/1999/xlink" x="0px" y="0px"
	 viewBox="0 0 330 330" style="enable-background:new 0 0 330 330;" xml:space="preserve">
<path id="XMLID_30_" d="M209.393,249.394L180,278.787V51.213l29.393,29.393c2.93,2.929,6.768,4.393,10.607,4.393
	c3.838,0,7.678-1.464,10.605-4.393c5.858-5.858,5.858-15.355,0-21.213L175.608,4.396c-0.347-0.347-0.711-0.676-1.09-0.987
	c-0.093-0.076-0.192-0.141-0.286-0.214c-0.292-0.228-0.586-0.455-0.894-0.661c-0.088-0.059-0.182-0.107-0.27-0.164
	c-0.324-0.208-0.65-0.411-0.991-0.593c-0.064-0.034-0.133-0.062-0.198-0.095c-0.369-0.191-0.743-0.374-1.13-0.535
	c-0.044-0.018-0.091-0.032-0.136-0.049c-0.406-0.165-0.819-0.316-1.243-0.445c-0.05-0.016-0.103-0.024-0.153-0.039
	c-0.415-0.122-0.835-0.232-1.265-0.318c-0.124-0.025-0.252-0.036-0.377-0.058c-0.356-0.062-0.713-0.125-1.078-0.161
	C166.002,0.026,165.502,0,165,0c-0.503,0-1.002,0.026-1.498,0.076c-0.368,0.037-0.729,0.1-1.088,0.163
	c-0.121,0.021-0.246,0.031-0.367,0.056c-0.434,0.087-0.857,0.198-1.277,0.321c-0.047,0.014-0.094,0.022-0.141,0.036
	c-0.428,0.13-0.846,0.284-1.258,0.45c-0.039,0.016-0.08,0.028-0.12,0.044c-0.392,0.163-0.771,0.348-1.145,0.541
	c-0.061,0.031-0.124,0.057-0.184,0.089c-0.346,0.185-0.679,0.392-1.007,0.602c-0.084,0.054-0.172,0.099-0.255,0.154
	c-0.316,0.212-0.618,0.444-0.917,0.68c-0.086,0.067-0.178,0.126-0.263,0.196c-0.38,0.312-0.744,0.641-1.091,0.988L99.395,59.393
	c-5.858,5.858-5.858,15.355,0,21.213c5.858,5.858,15.356,5.858,21.213,0L150,51.213v227.573l-29.393-29.393
	c-5.857-5.857-15.355-5.858-21.213,0c-5.858,5.857-5.858,15.355,0,21.213l54.996,54.997c0.347,0.347,0.711,0.676,1.091,0.988
	c0.085,0.069,0.177,0.128,0.263,0.196c0.299,0.235,0.601,0.467,0.917,0.68c0.083,0.055,0.171,0.101,0.255,0.154
	c0.328,0.211,0.661,0.417,1.007,0.603c0.06,0.032,0.123,0.058,0.184,0.089c0.374,0.193,0.753,0.378,1.145,0.541
	c0.04,0.016,0.081,0.028,0.12,0.044c0.412,0.167,0.83,0.32,1.258,0.45c0.047,0.014,0.094,0.022,0.141,0.036
	c0.42,0.123,0.844,0.234,1.277,0.321c0.121,0.024,0.246,0.035,0.367,0.056c0.359,0.063,0.72,0.126,1.088,0.163
	c0.496,0.05,0.995,0.076,1.498,0.076c0.502,0,1.002-0.026,1.497-0.076c0.365-0.036,0.722-0.099,1.078-0.161
	c0.125-0.022,0.253-0.033,0.377-0.058c0.43-0.086,0.85-0.196,1.265-0.318c0.051-0.015,0.104-0.023,0.153-0.039
	c0.424-0.129,0.837-0.281,1.243-0.445c0.045-0.018,0.092-0.031,0.136-0.049c0.387-0.161,0.761-0.343,1.13-0.535
	c0.065-0.033,0.134-0.061,0.198-0.095c0.341-0.183,0.667-0.386,0.991-0.593c0.089-0.057,0.183-0.105,0.27-0.164
	c0.308-0.206,0.602-0.433,0.894-0.661c0.094-0.073,0.193-0.138,0.286-0.214c0.379-0.312,0.743-0.641,1.09-0.987l54.997-54.997
	c5.858-5.857,5.858-15.355,0-21.213C224.748,243.537,215.252,243.536,209.393,249.394z"/>
<g>
</g>
<g>
</g>
<g>
</g>
<g>
</g>
<g>
</g>
<g>
</g>
<g>
</g>
<g>
</g>
<g>
</g>
<g>
</g>
<g>
</g>
<g>
</g>
<g>
</g>
<g>
</g>
<g>
</g>
</svg>
