<?xml version="1.0" encoding="iso-8859-1"?>
<!-- Generator: Adobe Illustrator 17.1.0, SVG Export Plug-In . SVG Version: 6.00 Build 0)  -->
<!DOCTYPE svg PUBLIC "-//W3C//DTD SVG 1.1//EN" "http://www.w3.org/Graphics/SVG/1.1/DTD/svg11.dtd">
<svg version="1.1" id="Capa_1" xmlns="http://www.w3.org/2000/svg" xmlns:xlink="http://www.w3.org/1999/xlink" x="0px" y="0px"
	 viewBox="0 0 297 297" style="enable-background:new 0 0 297 297;" xml:space="preserve">
<path d="M148.5,0C66.486,0,0,66.486,0,148.5S66.486,297,148.5,297S297,230.514,297,148.5S230.514,0,148.5,0z M235.79,161.984
	l-78.501,45.323c-2.422,1.398-5.159,2.137-7.916,2.137c0,0-0.167,0-0.168,0c-8.752,0-16.039-7.12-16.039-15.872V186.4
	l-36.044,20.907c-2.422,1.398-5.242,2.137-7.999,2.137c-8.753,0-15.956-7.12-15.956-15.872v-90.645
	c0-8.752,7.287-15.872,16.04-15.872c2.757,0,5.411,0.738,7.833,2.137l36.128,20.907v-7.172c0-8.752,7.287-15.872,16.04-15.872
	c2.757,0,5.577,0.738,7.999,2.137l78.543,45.323c4.966,2.867,7.951,8.001,7.951,13.734S240.756,159.117,235.79,161.984z" style="fill:#a6c6d9"/>
<g>
</g>
<g>
</g>
<g>
</g>
<g>
</g>
<g>
</g>
<g>
</g>
<g>
</g>
<g>
</g>
<g>
</g>
<g>
</g>
<g>
</g>
<g>
</g>
<g>
</g>
<g>
</g>
<g>
</g>
</svg>
