<?xml version="1.0" encoding="iso-8859-1"?>
<!-- Generator: Adobe Illustrator 19.0.0, SVG Export Plug-In . SVG Version: 6.00 Build 0)  -->
<svg version="1.1" id="Capa_1" xmlns="http://www.w3.org/2000/svg" xmlns:xlink="http://www.w3.org/1999/xlink" x="0px" y="0px"
	 viewBox="0 0 492 492" style="enable-background:new 0 0 492 492;" xml:space="preserve">
<g>
	<line style="fill:none;" x1="470.1" y1="245.95" x2="321.1" y2="245.95"/>
	<line style="fill:none;" x1="170.9" y1="245.95" x2="21.9" y2="245.95"/>
	<g>
		<path d="M484.7,228.25l-71.9-63.6c-8.3-7.3-21.9-6.3-29.2,2.1c-7.3,8.3-6.3,21.9,2.1,29.2l32.3,29.2h-96.9
			c-11.5,0-20.9,9.4-20.9,20.9s9.4,20.9,20.9,20.9h94.6l-30,27.1c-9.4,8.3-9.4,20.9-2.1,29.2c7.8,9.1,20.4,9.1,29.2,2.1l71.9-65.7
			c5.2-4.2,7.3-9.4,7.3-15.6C492,237.65,488.9,232.35,484.7,228.25z"/>
		<path d="M172,225.05H75.7l30.6-27.1c9.4-8.3,9.4-20.9,2.1-29.2c-8.3-8.3-20.9-9.4-29.2-2.1l-71.9,63.6c-5.3,4.2-7.3,9.4-7.3,15.7
			c0,6.3,3.1,11.5,7.3,15.6l71.9,63.6c13.2,10.5,25.6,4,29.2-1c7.3-8.3,6.3-21.9-2.1-29.2l-31.1-28.1H171c11.5,0,21.9-9.4,21.9-20.9
			S183.4,225.05,172,225.05z"/>
		<path d="M246,0.95c-11.5,0-20.9,9.4-20.9,20.9v448.3c0,11.5,9.4,20.9,20.9,20.9s20.9-9.4,20.9-19.8V21.85
			C266.9,10.35,257.5,0.95,246,0.95z"/>
	</g>
</g>
<g>
</g>
<g>
</g>
<g>
</g>
<g>
</g>
<g>
</g>
<g>
</g>
<g>
</g>
<g>
</g>
<g>
</g>
<g>
</g>
<g>
</g>
<g>
</g>
<g>
</g>
<g>
</g>
<g>
</g>
</svg>
