<?xml version="1.0" encoding="utf-8"?>
<!DOCTYPE svg PUBLIC "-//W3C//DTD SVG 1.1//EN" "http://www.w3.org/Graphics/SVG/1.1/DTD/svg11.dtd">
<svg version="1.1" xmlns="http://www.w3.org/2000/svg" xmlns:xlink="http://www.w3.org/1999/xlink" x="0px" y="0px" viewBox="0 0 1000 1000" enable-background="new 0 0 1000 1000" xml:space="preserve">
<g>
<g>
<g>
<!-- path to outer ring -->
<path d="M500,10C229.8,10,10,229.8,10,500c0,270.2,219.8,490,490,490c270.2,0,490-219.8,490-490C990,229.8,770.2,10,500,10z M500,931C262.3,931,69,737.7,69,500S262.3,69,500,69s431,193.3,431,431S737.7,931,500,931z"/>
<!-- path to inner ring -->
<path d="M500,95.4C276.9,95.4,95.4,276.9,95.4,500c0,223.1,181.5,404.5,404.6,404.5c223.1,0,404.6-181.5,404.6-404.5C904.6,276.9,723.1,95.4,500,95.4z M500,845.5c-190.6,0-345.6-155-345.6-345.5c0-190.5,155-345.6,345.6-345.6c190.5,0,345.6,155,345.6,345.6C845.6,690.5,690.6,845.5,500,845.5z"/>
<!-- path to bottom hole -->
<path d="M611.2,472.6c-77.6,0-140.7,63.1-140.7,140.7c0,77.6,63.1,140.7,140.7,140.7s140.7-63.1,140.7-140.7C751.9,535.7,688.8,472.6,611.2,472.6z M611.2,695c-45.1,0-81.7-36.6-81.7-81.7c0-45,36.6-81.7,81.7-81.7s81.7,36.6,81.7,81.7C692.9,658.4,656.3,695,611.2,695z"/>
<!-- path to top hole -->
<path d="M529.5,388.8c0-77.6-63.1-140.7-140.7-140.7s-140.7,63.1-140.7,140.7s63.1,140.7,140.7,140.7S529.5,466.4,529.5,388.8z M388.8,470.5c-45.1,0-81.7-36.6-81.7-81.7c0-45,36.6-81.7,81.7-81.7c45.1,0,81.7,36.6,81.7,81.7C470.5,433.9,433.9,470.5,388.8,470.5z"/>
</g></g><g></g><g></g><g></g><g></g><g></g><g></g><g></g><g></g><g></g><g></g><g></g><g></g><g></g><g></g><g></g></g>
</svg>
